<?xml version="1.0" standalone="no"?>
<!DOCTYPE svg PUBLIC "-//W3C//DTD SVG 20010904//EN"
 "http://www.w3.org/TR/2001/REC-SVG-20010904/DTD/svg10.dtd">
<svg version="1.0" xmlns="http://www.w3.org/2000/svg"
 width="622.000000pt" height="454.000000pt" viewBox="0 0 622.000000 454.000000"
 preserveAspectRatio="xMidYMid meet">

<g transform="translate(0.000000,454.000000) scale(0.100000,-0.100000)"
fill="#000000" stroke="none">
<path d="M190 4330 c-9 -21 -19 -30 -36 -30 -13 0 -24 -4 -24 -10 0 -5 9 -10
21 -10 27 0 19 -24 -9 -28 -25 -4 -30 -22 -6 -22 12 0 14 -7 9 -32 -6 -31 -5
-32 10 -14 8 11 15 26 15 33 0 7 7 13 15 13 11 0 12 -5 5 -26 -12 -31 -12 -34
-1 -34 5 0 14 14 20 30 7 20 17 30 30 30 12 0 21 5 21 10 0 6 -7 10 -16 10
-24 0 -11 24 17 31 21 6 22 7 6 14 -14 6 -17 14 -12 36 4 17 2 29 -3 29 -6 0
-13 -13 -17 -30 -4 -17 -13 -30 -22 -30 -9 0 -13 6 -9 15 3 8 9 22 12 30 3 8
2 15 -4 15 -5 0 -15 -13 -22 -30z m20 -65 c0 -8 -7 -15 -15 -15 -9 0 -12 6 -9
15 4 8 10 15 15 15 5 0 9 -7 9 -15z"/>
<path d="M1230 4340 c0 -5 5 -10 10 -10 6 0 10 -28 10 -65 0 -37 -4 -65 -10
-65 -5 0 -10 -4 -10 -10 0 -5 9 -10 20 -10 15 0 20 7 20 26 0 31 20 28 35 -4
6 -13 19 -22 32 -22 30 0 29 5 -9 39 -28 25 -30 31 -19 45 7 9 20 16 27 16 8
0 14 5 14 10 0 19 -42 10 -61 -12 l-18 -23 -1 48 c0 40 -3 47 -20 47 -11 0
-20 -4 -20 -10z"/>
<path d="M1460 4340 c0 -5 5 -10 10 -10 6 0 10 -9 10 -20 0 -16 -5 -19 -30
-13 -56 11 -95 -61 -55 -100 16 -17 125 -21 125 -6 0 5 -4 9 -10 9 -6 0 -10
32 -10 75 0 68 -2 75 -20 75 -11 0 -20 -4 -20 -10z m14 -82 c23 -38 -36 -77
-64 -43 -10 12 -10 21 -1 41 13 29 47 30 65 2z"/>
<path d="M465 4290 c-7 -11 -1 -13 38 -10 15 1 27 -3 27 -9 0 -6 -10 -11 -23
-11 -35 0 -59 -22 -55 -51 3 -22 7 -24 66 -26 34 0 62 3 62 8 0 5 -4 9 -10 9
-5 0 -10 17 -10 38 0 21 -5 43 -12 50 -15 15 -74 16 -83 2z m75 -58 c0 -14
-23 -32 -41 -32 -24 0 -35 20 -18 31 18 11 59 12 59 1z"/>
<path d="M755 4240 c0 -56 2 -60 23 -60 12 0 22 5 22 10 0 6 -4 10 -10 10 -14
0 -13 67 1 76 16 10 29 -15 29 -58 0 -25 5 -38 14 -38 10 0 12 12 8 51 -4 41
-2 51 9 47 9 -3 15 -22 17 -51 2 -31 8 -47 16 -47 10 0 12 12 9 48 -7 71 -6
70 -75 71 l-63 1 0 -60z"/>
<path d="M937 4293 c-16 -15 -5 -21 28 -16 23 4 35 2 35 -6 0 -6 -10 -11 -23
-11 -35 0 -59 -22 -55 -51 3 -22 7 -24 66 -26 34 0 62 3 62 8 0 5 -4 9 -10 9
-5 0 -10 14 -10 31 0 48 -16 69 -54 69 -18 0 -36 -3 -39 -7z m61 -70 c-4 -20
-35 -30 -50 -15 -15 15 0 32 28 32 19 0 25 -5 22 -17z"/>
<path d="M1080 4290 c0 -5 5 -10 10 -10 6 0 10 -18 10 -40 0 -29 -4 -40 -15
-40 -8 0 -15 -4 -15 -10 0 -5 23 -10 50 -10 28 0 50 5 50 10 0 6 -11 10 -25
10 -20 0 -25 5 -25 23 0 29 31 60 55 55 10 -2 20 3 22 10 6 16 -49 16 -65 0
-9 -9 -12 -9 -12 0 0 7 -9 12 -20 12 -11 0 -20 -4 -20 -10z"/>
<path d="M1556 4284 c-9 -8 -16 -28 -16 -44 0 -38 24 -60 64 -60 58 0 89 66
48 103 -23 21 -76 22 -96 1z m84 -24 c8 -14 8 -26 0 -40 -19 -35 -80 -20 -80
20 0 40 61 55 80 20z"/>
<path d="M1680 4298 c3 -23 40 -113 47 -115 6 -2 15 9 21 24 l10 28 7 -27 c11
-42 31 -34 45 17 7 25 17 48 21 51 19 11 8 24 -21 24 -29 0 -41 -15 -18 -22 7
-3 9 -14 3 -34 l-7 -29 -10 28 c-11 32 -28 35 -35 7 -3 -11 -9 -20 -13 -20
-12 0 -21 45 -10 48 20 7 9 22 -15 22 -14 0 -25 -1 -25 -2z"/>
<path d="M1850 4289 c0 -5 5 -9 10 -9 6 0 10 -18 10 -40 0 -22 -4 -40 -10 -40
-5 0 -10 -4 -10 -10 0 -5 10 -10 23 -10 21 0 23 4 23 47 -1 37 3 48 16 51 25
5 46 -43 30 -69 -17 -26 -15 -29 12 -29 23 0 24 3 19 43 -9 68 -17 76 -73 75
-28 0 -50 -4 -50 -9z"/>
<path d="M2165 4213 l0 -83 33 0 c17 0 32 5 32 10 0 6 -9 10 -20 10 -13 0 -20
7 -20 20 0 16 5 19 29 14 44 -9 71 10 71 51 0 47 -21 64 -78 63 l-47 -1 0 -84z
m99 45 c13 -21 -2 -51 -26 -56 -16 -3 -48 23 -48 38 0 15 32 41 48 38 8 -2 20
-11 26 -20z"/>
<path d="M2336 4284 c-9 -8 -16 -28 -16 -44 0 -38 24 -60 64 -60 58 0 89 66
48 103 -23 21 -76 22 -96 1z m84 -24 c8 -14 8 -26 0 -40 -19 -35 -80 -20 -80
20 0 40 61 55 80 20z"/>
<path d="M2486 4278 c-32 -46 -6 -98 49 -98 18 0 40 3 49 6 31 12 15 22 -30
21 -30 -1 -48 3 -51 11 -3 8 10 12 46 12 44 0 51 3 51 19 0 50 -85 71 -114 29z
m82 -15 c2 -9 -8 -13 -32 -13 -28 0 -34 3 -29 16 7 18 54 16 61 -3z"/>
<path d="M2625 4240 c0 -54 2 -60 21 -60 19 0 21 4 16 51 -4 41 -2 51 9 47 9
-3 15 -22 17 -51 4 -64 28 -64 28 0 -1 28 4 48 12 50 8 3 12 -10 12 -46 0 -44
3 -51 20 -51 11 0 20 5 20 10 0 6 -4 10 -9 10 -6 0 -11 21 -13 48 l-3 47 -65
3 -65 2 0 -60z"/>
<path d="M190 4030 c-9 -21 -19 -30 -36 -30 -13 0 -24 -4 -24 -10 0 -5 9 -10
21 -10 27 0 19 -24 -9 -28 -25 -4 -30 -22 -6 -22 12 0 14 -7 9 -32 -6 -31 -5
-32 10 -14 8 11 15 26 15 33 0 7 7 13 15 13 11 0 12 -5 5 -26 -12 -31 -12 -34
-1 -34 5 0 14 14 20 30 7 20 17 30 30 30 12 0 21 5 21 10 0 6 -7 10 -16 10
-24 0 -11 24 17 31 21 6 22 7 6 14 -14 6 -17 14 -12 36 4 17 2 29 -3 29 -6 0
-13 -13 -17 -30 -4 -17 -13 -30 -22 -30 -9 0 -13 6 -9 15 3 8 9 22 12 30 3 8
2 15 -4 15 -5 0 -15 -13 -22 -30z m20 -65 c0 -8 -7 -15 -15 -15 -9 0 -12 6 -9
15 4 8 10 15 15 15 5 0 9 -7 9 -15z"/>
<path d="M345 4030 c-5 -23 -12 -30 -31 -30 -13 0 -24 -4 -24 -10 0 -5 7 -10
15 -10 8 0 15 -7 15 -15 0 -8 -9 -15 -20 -15 -11 0 -20 -4 -20 -10 0 -5 7 -10
15 -10 11 0 12 -5 5 -26 -12 -31 -12 -34 -1 -34 5 0 14 14 20 30 14 41 32 39
25 -2 -5 -31 -5 -32 10 -14 9 11 16 26 16 33 0 7 11 13 25 13 14 0 25 5 25 10
0 6 -9 10 -20 10 -13 0 -18 5 -14 15 4 8 15 15 25 15 10 0 19 5 19 10 0 6 -7
10 -15 10 -18 0 -18 5 -5 30 7 13 7 21 0 25 -6 4 -15 -7 -21 -24 -14 -40 -33
-41 -24 -1 4 18 2 30 -3 30 -6 0 -13 -13 -17 -30z m25 -59 c0 -12 -20 -25 -27
-18 -7 7 6 27 18 27 5 0 9 -4 9 -9z"/>
<path d="M501 4030 c-6 -20 -17 -30 -30 -30 -11 0 -23 -4 -26 -10 -3 -5 3 -10
14 -10 12 0 21 -7 21 -15 0 -10 -10 -15 -27 -15 -26 -1 -27 -2 -10 -14 13 -10
16 -21 11 -40 -9 -36 9 -33 23 4 6 17 16 30 22 30 6 0 8 -12 5 -30 -4 -16 -3
-30 0 -30 4 0 12 14 17 30 7 19 18 30 29 30 11 0 22 5 25 10 3 6 -3 10 -15 10
-28 0 -21 24 8 28 25 4 30 22 7 22 -11 0 -13 8 -9 33 5 30 5 31 -10 13 -9 -11
-16 -26 -16 -33 0 -7 -7 -13 -15 -13 -11 0 -12 5 -5 26 12 31 12 34 1 34 -5 0
-14 -13 -20 -30z m23 -65 c-4 -8 -10 -15 -15 -15 -5 0 -9 7 -9 15 0 8 7 15 15
15 9 0 12 -6 9 -15z"/>
<path d="M659 4030 c-8 -22 -17 -30 -35 -30 -13 0 -24 -4 -24 -10 0 -5 9 -10
20 -10 13 0 18 -5 14 -15 -4 -8 -15 -15 -25 -15 -10 0 -19 -4 -19 -10 0 -5 7
-10 15 -10 11 0 13 -8 9 -30 -4 -16 -3 -30 0 -30 4 0 12 14 17 30 6 17 15 30
21 30 5 0 7 -13 3 -30 -4 -18 -2 -30 3 -30 6 0 13 14 17 30 5 23 12 30 31 30
13 0 24 5 24 10 0 6 -7 10 -15 10 -8 0 -15 7 -15 15 0 8 9 15 20 15 11 0 20 5
20 10 0 6 -7 10 -15 10 -11 0 -12 5 -5 26 12 31 12 34 1 34 -5 0 -14 -13 -20
-30 -5 -16 -15 -30 -20 -30 -6 0 -8 12 -4 30 3 17 2 30 -1 30 -4 0 -12 -13
-17 -30z m21 -59 c0 -12 -20 -25 -27 -18 -7 7 6 27 18 27 5 0 9 -4 9 -9z"/>
<path d="M815 4030 c-5 -23 -12 -30 -31 -30 -13 0 -24 -4 -24 -10 0 -5 7 -10
15 -10 8 0 15 -7 15 -15 0 -8 -9 -15 -20 -15 -11 0 -20 -4 -20 -10 0 -5 7 -10
15 -10 11 0 12 -5 5 -26 -12 -31 -12 -34 -1 -34 5 0 14 14 20 30 14 41 32 39
25 -2 -5 -31 -5 -32 10 -14 9 11 16 26 16 33 0 7 11 13 25 13 14 0 25 5 25 10
0 6 -9 10 -20 10 -13 0 -18 5 -14 15 4 8 15 15 25 15 10 0 19 5 19 10 0 6 -7
10 -15 10 -18 0 -18 5 -5 30 7 13 7 21 0 25 -6 4 -15 -7 -21 -24 -14 -40 -33
-41 -24 -1 4 18 2 30 -3 30 -6 0 -13 -13 -17 -30z m25 -59 c0 -12 -20 -25 -27
-18 -7 7 6 27 18 27 5 0 9 -4 9 -9z"/>
<path d="M970 4030 c-9 -21 -19 -30 -36 -30 -13 0 -24 -4 -24 -10 0 -5 9 -10
21 -10 27 0 19 -24 -9 -28 -25 -4 -30 -22 -6 -22 12 0 14 -7 9 -32 -6 -31 -5
-32 10 -14 8 11 15 26 15 33 0 7 7 13 15 13 11 0 12 -5 5 -26 -12 -31 -12 -34
-1 -34 5 0 14 14 20 30 7 20 17 30 30 30 12 0 21 5 21 10 0 6 -7 10 -16 10
-24 0 -11 24 17 31 21 6 22 7 6 14 -14 6 -17 14 -12 36 4 17 2 29 -3 29 -6 0
-13 -13 -17 -30 -4 -17 -13 -30 -22 -30 -9 0 -13 6 -9 15 3 8 9 22 12 30 3 8
2 15 -4 15 -5 0 -15 -13 -22 -30z m20 -65 c0 -8 -7 -15 -15 -15 -9 0 -12 6 -9
15 4 8 10 15 15 15 5 0 9 -7 9 -15z"/>
<path d="M1125 4030 c-5 -23 -12 -30 -31 -30 -13 0 -24 -4 -24 -10 0 -5 7 -10
15 -10 8 0 15 -7 15 -15 0 -8 -9 -15 -20 -15 -11 0 -20 -4 -20 -10 0 -5 7 -10
15 -10 11 0 12 -5 5 -26 -12 -31 -12 -34 -1 -34 5 0 14 14 20 30 14 41 32 39
25 -2 -5 -31 -5 -32 10 -14 9 11 16 26 16 33 0 7 11 13 25 13 14 0 25 5 25 10
0 6 -9 10 -20 10 -13 0 -18 5 -14 15 4 8 15 15 25 15 10 0 19 5 19 10 0 6 -7
10 -15 10 -18 0 -18 5 -5 30 7 13 7 21 0 25 -6 4 -15 -7 -21 -24 -14 -40 -33
-41 -24 -1 4 18 2 30 -3 30 -6 0 -13 -13 -17 -30z m25 -59 c0 -12 -20 -25 -27
-18 -7 7 6 27 18 27 5 0 9 -4 9 -9z"/>
<path d="M1281 4030 c-6 -20 -17 -30 -30 -30 -11 0 -23 -4 -26 -10 -3 -5 3
-10 14 -10 12 0 21 -7 21 -15 0 -10 -10 -15 -27 -15 -26 -1 -27 -2 -10 -14 13
-10 16 -21 11 -40 -9 -36 9 -33 23 4 6 17 16 30 22 30 6 0 8 -12 5 -30 -4 -16
-3 -30 0 -30 4 0 12 14 17 30 7 19 18 30 29 30 11 0 22 5 25 10 3 6 -3 10 -15
10 -28 0 -21 24 8 28 25 4 30 22 7 22 -11 0 -13 8 -9 33 5 30 5 31 -10 13 -9
-11 -16 -26 -16 -33 0 -7 -7 -13 -15 -13 -11 0 -12 5 -5 26 12 31 12 34 1 34
-5 0 -14 -13 -20 -30z m23 -65 c-4 -8 -10 -15 -15 -15 -5 0 -9 7 -9 15 0 8 7
15 15 15 9 0 12 -6 9 -15z"/>
<path d="M1439 4030 c-8 -22 -17 -30 -35 -30 -13 0 -24 -4 -24 -10 0 -5 9 -10
20 -10 13 0 18 -5 14 -15 -4 -8 -15 -15 -25 -15 -10 0 -19 -4 -19 -10 0 -5 7
-10 15 -10 11 0 13 -8 9 -30 -4 -16 -3 -30 0 -30 4 0 12 14 17 30 6 17 15 30
21 30 5 0 7 -13 3 -30 -4 -18 -2 -30 3 -30 6 0 13 14 17 30 5 23 12 30 31 30
13 0 24 5 24 10 0 6 -7 10 -15 10 -8 0 -15 7 -15 15 0 8 9 15 20 15 11 0 20 5
20 10 0 6 -7 10 -15 10 -11 0 -12 5 -5 26 12 31 12 34 1 34 -5 0 -14 -13 -20
-30 -5 -16 -15 -30 -20 -30 -6 0 -8 12 -4 30 3 17 2 30 -1 30 -4 0 -12 -13
-17 -30z m21 -59 c0 -12 -20 -25 -27 -18 -7 7 6 27 18 27 5 0 9 -4 9 -9z"/>
<path d="M1595 4030 c-5 -23 -12 -30 -31 -30 -13 0 -24 -4 -24 -10 0 -5 7 -10
15 -10 8 0 15 -7 15 -15 0 -8 -9 -15 -20 -15 -11 0 -20 -4 -20 -10 0 -5 7 -10
15 -10 11 0 12 -5 5 -26 -12 -31 -12 -34 -1 -34 5 0 14 14 20 30 14 41 32 39
25 -2 -5 -31 -5 -32 10 -14 9 11 16 26 16 33 0 7 11 13 25 13 14 0 25 5 25 10
0 6 -9 10 -20 10 -13 0 -18 5 -14 15 4 8 15 15 25 15 10 0 19 5 19 10 0 6 -7
10 -15 10 -18 0 -18 5 -5 30 7 13 7 21 0 25 -6 4 -15 -7 -21 -24 -14 -40 -33
-41 -24 -1 4 18 2 30 -3 30 -6 0 -13 -13 -17 -30z m25 -59 c0 -12 -20 -25 -27
-18 -7 7 6 27 18 27 5 0 9 -4 9 -9z"/>
<path d="M1750 4030 c-9 -21 -19 -30 -36 -30 -13 0 -24 -4 -24 -10 0 -5 9 -10
21 -10 27 0 19 -24 -9 -28 -25 -4 -30 -22 -6 -22 12 0 14 -7 9 -32 -6 -31 -5
-32 10 -14 8 11 15 26 15 33 0 7 7 13 15 13 11 0 12 -5 5 -26 -12 -31 -12 -34
-1 -34 5 0 14 14 20 30 7 20 17 30 30 30 12 0 21 5 21 10 0 6 -7 10 -16 10
-24 0 -11 24 17 31 21 6 22 7 6 14 -14 6 -17 14 -12 36 4 17 2 29 -3 29 -6 0
-13 -13 -17 -30 -4 -17 -13 -30 -22 -30 -9 0 -13 6 -9 15 3 8 9 22 12 30 3 8
2 15 -4 15 -5 0 -15 -13 -22 -30z m20 -65 c0 -8 -7 -15 -15 -15 -9 0 -12 6 -9
15 4 8 10 15 15 15 5 0 9 -7 9 -15z"/>
<path d="M1909 4030 c-8 -22 -17 -30 -35 -30 -13 0 -24 -4 -24 -10 0 -5 9 -10
20 -10 13 0 18 -5 14 -15 -4 -8 -15 -15 -25 -15 -10 0 -19 -4 -19 -10 0 -5 7
-10 15 -10 11 0 13 -8 9 -30 -4 -16 -3 -30 0 -30 4 0 12 14 17 30 6 17 15 30
21 30 5 0 7 -13 3 -30 -4 -18 -2 -30 3 -30 6 0 13 14 17 30 5 23 12 30 31 30
13 0 24 5 24 10 0 6 -7 10 -15 10 -8 0 -15 7 -15 15 0 8 9 15 20 15 11 0 20 5
20 10 0 6 -7 10 -15 10 -11 0 -12 5 -5 26 12 31 12 34 1 34 -5 0 -14 -13 -20
-30 -5 -16 -15 -30 -20 -30 -6 0 -8 12 -4 30 3 17 2 30 -1 30 -4 0 -12 -13
-17 -30z m21 -59 c0 -12 -20 -25 -27 -18 -7 7 6 27 18 27 5 0 9 -4 9 -9z"/>
<path d="M2240 4040 c0 -5 5 -10 10 -10 6 0 10 -9 10 -20 0 -16 -5 -19 -30
-13 -56 11 -95 -61 -55 -100 16 -17 125 -21 125 -6 0 5 -4 9 -10 9 -6 0 -10
32 -10 75 0 68 -2 75 -20 75 -11 0 -20 -4 -20 -10z m14 -82 c23 -38 -36 -77
-64 -43 -10 12 -10 21 -1 41 13 29 47 30 65 2z"/>
<path d="M2688 4039 c-10 -5 -18 -15 -18 -21 0 -6 -8 -17 -17 -24 -17 -13 -17
-13 0 -14 23 0 25 -80 2 -80 -8 0 -15 -4 -15 -10 0 -5 23 -10 50 -10 50 0 70
16 28 22 -19 2 -23 9 -23 38 0 31 3 35 28 38 34 4 26 22 -10 22 -21 0 -24 2
-13 15 7 8 23 15 37 15 14 0 21 4 18 10 -8 13 -45 12 -67 -1z"/>
<path d="M3932 4038 c-7 -7 -12 -18 -12 -25 0 -7 -7 -13 -15 -13 -8 0 -15 -4
-15 -10 0 -5 7 -10 15 -10 11 0 15 -11 15 -40 0 -29 -4 -40 -15 -40 -8 0 -15
-4 -15 -10 0 -5 23 -10 50 -10 28 0 50 5 50 10 0 6 -12 10 -26 10 -23 0 -25 3
-22 38 3 32 7 37 31 40 33 4 26 22 -9 22 -34 0 -26 24 9 28 15 2 27 8 27 13 0
13 -54 11 -68 -3z"/>
<path d="M4340 4040 c0 -5 5 -10 10 -10 6 0 10 -28 10 -65 0 -37 -4 -65 -10
-65 -5 0 -10 -4 -10 -9 0 -16 103 -11 122 6 42 37 2 110 -53 99 -27 -5 -29 -3
-29 24 0 23 -4 30 -20 30 -11 0 -20 -4 -20 -10z m104 -76 c9 -8 16 -19 16 -24
0 -13 -30 -40 -44 -40 -17 0 -36 21 -36 40 0 19 19 40 36 40 7 0 20 -7 28 -16z"/>
<path d="M4580 4040 c0 -5 5 -10 10 -10 6 0 10 -9 10 -20 0 -16 -5 -19 -30
-13 -56 11 -95 -61 -55 -100 16 -17 125 -21 125 -6 0 5 -4 9 -10 9 -6 0 -10
32 -10 75 0 68 -2 75 -20 75 -11 0 -20 -4 -20 -10z m14 -82 c23 -38 -36 -77
-64 -43 -10 12 -10 21 -1 41 13 29 47 30 65 2z"/>
<path d="M2816 4033 c-3 -3 -6 -15 -6 -25 0 -10 -7 -18 -17 -18 -17 -1 -17 -1
0 -14 9 -7 17 -23 17 -35 0 -56 51 -81 96 -46 18 15 16 15 -23 10 l-43 -7 0
36 c0 31 3 36 24 36 14 0 28 5 31 10 4 6 -7 10 -24 10 -24 0 -31 4 -31 19 0
21 -13 34 -24 24z"/>
<path d="M4220 4010 c0 -11 -7 -20 -15 -20 -8 0 -15 -4 -15 -10 0 -5 7 -10 15
-10 10 0 15 -10 15 -33 0 -18 5 -38 12 -45 13 -13 47 -16 72 -6 29 11 17 23
-21 21 -36 -2 -38 0 -41 31 -3 30 -1 32 27 32 17 0 31 5 31 10 0 6 -13 10 -30
10 -23 0 -30 4 -30 20 0 11 -4 20 -10 20 -5 0 -10 -9 -10 -20z"/>
<path d="M2330 3990 c0 -5 5 -10 10 -10 6 0 10 -18 10 -40 0 -29 -4 -40 -15
-40 -8 0 -15 -4 -15 -10 0 -5 23 -10 50 -10 28 0 50 5 50 10 0 6 -11 10 -25
10 -20 0 -25 5 -25 23 0 29 31 60 55 55 10 -2 20 3 22 10 6 16 -49 16 -65 0
-9 -9 -12 -9 -12 0 0 7 -9 12 -20 12 -11 0 -20 -4 -20 -10z"/>
<path d="M2497 3993 c-16 -15 -5 -21 28 -16 23 4 35 2 35 -6 0 -6 -10 -11 -23
-11 -35 0 -59 -22 -55 -51 3 -22 7 -24 66 -26 34 0 62 3 62 8 0 5 -4 9 -10 9
-5 0 -10 14 -10 31 0 48 -16 69 -54 69 -18 0 -36 -3 -39 -7z m61 -70 c-4 -20
-35 -30 -50 -15 -15 15 0 32 28 32 19 0 25 -5 22 -17z"/>
<path d="M3116 3984 c-9 -8 -16 -28 -16 -44 0 -38 24 -60 64 -60 58 0 89 66
48 103 -23 21 -76 22 -96 1z m84 -24 c8 -14 8 -26 0 -40 -19 -35 -80 -20 -80
20 0 40 61 55 80 20z"/>
<path d="M3250 3989 c0 -5 5 -9 10 -9 6 0 10 -18 10 -40 0 -22 -4 -40 -10 -40
-5 0 -10 -4 -10 -10 0 -5 14 -10 30 -10 17 0 30 5 30 10 0 6 -4 10 -10 10 -11
0 -13 39 -4 64 3 9 14 16 24 16 10 0 21 -7 24 -16 9 -25 7 -64 -4 -64 -5 0
-10 -4 -10 -10 0 -5 14 -10 30 -10 17 0 30 5 30 10 0 6 -4 10 -10 10 -5 0 -10
17 -10 39 0 21 -6 43 -13 49 -15 13 -107 14 -107 1z"/>
<path d="M3427 3982 c-22 -24 -21 -65 1 -85 19 -18 50 -21 90 -11 39 11 24 24
-24 21 -30 -1 -48 2 -51 11 -3 8 9 12 41 12 54 0 69 19 41 50 -23 25 -76 26
-98 2z m81 -19 c2 -9 -8 -13 -32 -13 -34 0 -44 8 -29 24 11 11 56 2 61 -11z"/>
<path d="M3737 3982 c-38 -42 -8 -102 50 -102 55 0 85 67 45 103 -25 22 -75
21 -95 -1z m87 -24 c15 -24 -3 -52 -37 -56 -33 -4 -53 28 -37 59 14 25 58 23
74 -3z"/>
<path d="M765 3665 c0 -79 1 -85 21 -85 18 0 20 6 20 48 -1 41 2 47 19 47 17
0 20 -6 19 -47 0 -44 2 -48 23 -48 13 0 23 5 23 10 0 6 -4 10 -9 10 -6 0 -11
21 -13 48 -3 45 -4 47 -33 47 -24 0 -31 5 -35 25 -3 14 -12 26 -20 28 -12 2
-15 -13 -15 -83z"/>
<path d="M190 3714 c0 -11 -6 -15 -20 -11 -13 3 -20 0 -20 -9 0 -8 7 -14 16
-14 14 0 14 -3 4 -15 -10 -12 -10 -19 -2 -27 8 -8 13 -7 18 6 6 16 8 16 24 1
11 -10 20 -12 24 -6 4 5 2 12 -4 16 -15 9 -12 25 5 25 8 0 15 5 15 10 0 6 -9
10 -20 10 -11 0 -20 7 -20 15 0 8 -4 15 -10 15 -5 0 -10 -7 -10 -16z"/>
<path d="M340 3715 c0 -9 -7 -15 -16 -13 -10 2 -19 -3 -21 -9 -3 -7 2 -13 11
-13 19 0 21 -11 4 -28 -9 -9 -8 -12 4 -12 9 0 20 5 23 11 5 6 11 4 19 -7 10
-12 15 -14 20 -5 4 6 2 18 -4 26 -10 12 -9 15 4 15 9 0 16 6 16 14 0 9 -7 12
-20 9 -14 -4 -20 0 -20 11 0 9 -4 16 -10 16 -5 0 -10 -7 -10 -15z"/>
<path d="M627 3694 c-15 -16 -6 -23 22 -18 16 4 32 1 35 -5 5 -7 -4 -11 -23
-11 -37 0 -65 -34 -50 -61 7 -15 21 -18 64 -17 55 2 63 6 46 24 -5 5 -11 27
-13 49 -3 38 -5 40 -38 43 -20 2 -39 0 -43 -4z m63 -68 c0 -18 -39 -31 -52
-18 -15 15 0 32 28 32 14 0 24 -6 24 -14z"/>
<path d="M926 3678 c-32 -46 -6 -98 49 -98 18 0 40 3 49 6 31 12 15 22 -30 21
-30 -1 -48 3 -51 11 -3 8 10 12 46 12 44 0 51 3 51 19 0 50 -85 71 -114 29z
m82 -15 c2 -9 -8 -13 -32 -13 -28 0 -34 3 -29 16 7 18 54 16 61 -3z"/>
<path d="M1065 3640 c0 -56 2 -60 23 -60 12 0 22 5 22 10 0 6 -4 10 -10 10
-14 0 -13 67 1 76 16 10 29 -15 29 -58 0 -25 5 -38 14 -38 10 0 12 12 8 51 -4
41 -2 51 9 47 9 -3 15 -22 17 -51 2 -31 8 -47 16 -47 10 0 12 12 9 48 -7 71
-6 70 -75 71 l-63 1 0 -60z"/>
<path d="M814 3446 c-8 -22 3 -33 18 -18 9 9 9 15 0 24 -9 9 -13 7 -18 -6z"/>
<path d="M600 3440 c0 -5 5 -10 10 -10 6 0 10 -28 10 -65 0 -37 -4 -65 -10
-65 -5 0 -10 -4 -10 -10 0 -5 10 -10 23 -10 21 0 23 4 23 48 -1 41 2 47 19 47
17 0 20 -6 19 -47 0 -43 2 -48 22 -48 20 0 22 4 17 43 -9 64 -20 80 -54 75
-26 -4 -29 -2 -29 24 0 21 -5 28 -20 28 -11 0 -20 -4 -20 -10z"/>
<path d="M476 3433 c-3 -3 -6 -15 -6 -25 0 -10 -7 -18 -17 -18 -17 -1 -17 -1
0 -14 9 -7 17 -23 17 -35 0 -56 51 -81 96 -46 18 15 16 15 -23 10 l-43 -7 0
36 c0 31 3 36 24 36 14 0 28 5 31 10 4 6 -7 10 -24 10 -24 0 -31 4 -31 19 0
21 -13 34 -24 24z"/>
<path d="M190 3414 c0 -11 -6 -15 -20 -11 -13 3 -20 0 -20 -9 0 -8 7 -14 16
-14 14 0 14 -3 4 -15 -10 -12 -10 -19 -2 -27 8 -8 13 -7 18 6 6 16 8 16 24 1
11 -10 20 -12 24 -6 4 5 2 12 -4 16 -15 9 -12 25 5 25 8 0 15 5 15 10 0 6 -9
10 -20 10 -11 0 -20 7 -20 15 0 8 -4 15 -10 15 -5 0 -10 -7 -10 -16z"/>
<path d="M780 3390 c0 -5 7 -10 15 -10 11 0 15 -11 15 -40 0 -33 -3 -40 -20
-40 -11 0 -20 -4 -20 -10 0 -5 24 -10 54 -10 30 0 58 5 61 10 4 6 -5 10 -19
10 -24 0 -26 3 -26 50 0 49 -1 50 -30 50 -16 0 -30 -4 -30 -10z"/>
<path d="M930 3385 c-17 -21 -6 -43 27 -51 46 -10 53 -13 53 -24 0 -13 -57
-13 -65 0 -11 17 -25 11 -25 -11 0 -18 5 -20 53 -17 50 3 52 4 52 33 0 27 -4
31 -34 35 -41 6 -55 30 -17 30 13 0 28 -5 31 -10 8 -13 25 -3 25 16 0 20 -83
19 -100 -1z"/>
<path d="M655 3150 c-7 -12 2 -30 16 -30 5 0 9 9 9 20 0 21 -15 27 -25 10z"/>
<path d="M1230 3140 c0 -5 5 -10 10 -10 6 0 10 -28 10 -65 0 -37 -4 -65 -10
-65 -5 0 -10 -4 -10 -10 0 -5 9 -10 20 -10 15 0 20 7 20 26 0 31 20 28 35 -4
6 -13 19 -22 32 -22 30 0 29 5 -9 39 -28 25 -30 31 -19 45 7 9 20 16 27 16 8
0 14 5 14 10 0 19 -42 10 -61 -12 l-18 -23 -1 48 c0 40 -3 47 -20 47 -11 0
-20 -4 -20 -10z"/>
<path d="M947 3134 c-4 -4 -7 -16 -7 -26 0 -10 -7 -18 -15 -18 -8 0 -15 -4
-15 -10 0 -5 7 -10 15 -10 10 0 15 -10 15 -33 0 -18 5 -38 12 -45 20 -20 88
-12 88 10 0 6 -13 7 -31 3 -35 -8 -49 4 -49 43 0 18 6 22 30 22 37 0 40 18 3
22 -19 2 -29 10 -33 26 -3 13 -8 20 -13 16z"/>
<path d="M430 3090 c0 -6 5 -10 10 -10 6 0 10 -18 10 -40 0 -22 -4 -40 -10
-40 -5 0 -10 -4 -10 -10 0 -5 14 -10 30 -10 17 0 30 5 30 10 0 6 -5 10 -11 10
-15 0 -7 72 9 78 8 2 12 -11 12 -47 0 -44 3 -51 20 -51 11 0 20 5 20 10 0 6
-4 10 -10 10 -12 0 -13 50 -1 69 15 24 31 1 31 -45 0 -32 4 -44 14 -44 11 0
14 9 10 38 -12 85 -7 80 -84 81 -39 0 -70 -4 -70 -9z"/>
<path d="M620 3090 c0 -5 9 -10 20 -10 17 0 20 -7 20 -40 0 -36 -2 -40 -25
-40 -14 0 -25 -4 -25 -10 0 -6 27 -10 60 -10 33 0 60 4 60 10 0 6 -11 10 -25
10 -23 0 -25 3 -25 50 0 49 -1 50 -30 50 -16 0 -30 -4 -30 -10z"/>
<path d="M777 3093 c-4 -3 -7 -16 -7 -29 0 -23 17 -34 56 -34 15 0 24 -6 24
-15 0 -17 -45 -21 -55 -5 -10 17 -25 11 -25 -10 0 -17 7 -20 44 -20 47 0 72
19 62 45 -6 16 -12 19 -58 29 -16 4 -28 11 -28 16 0 13 47 13 55 0 10 -17 25
-11 25 10 0 17 -7 20 -43 20 -24 0 -47 -3 -50 -7z"/>
<path d="M1090 3085 c0 -11 7 -13 29 -9 16 4 32 1 35 -5 5 -7 -4 -11 -23 -11
-48 0 -78 -43 -48 -68 15 -13 117 -14 117 -1 0 5 -4 9 -10 9 -5 0 -10 15 -10
34 0 56 -8 66 -51 66 -28 0 -39 -4 -39 -15z m70 -53 c0 -14 -23 -32 -42 -32
-18 0 -25 20 -11 33 9 10 53 9 53 -1z"/>
<path d="M1397 3082 c-22 -24 -21 -65 1 -85 19 -18 50 -21 90 -11 39 11 24 24
-24 21 -30 -1 -48 2 -51 11 -3 8 9 12 41 12 54 0 69 19 41 50 -23 25 -76 26
-98 2z m81 -19 c2 -9 -8 -13 -32 -13 -34 0 -44 8 -29 24 11 11 56 2 61 -11z"/>
<path d="M153 3073 c-7 -3 -13 -8 -13 -13 0 -12 113 -7 117 5 3 10 -80 16
-104 8z"/>
<path d="M1280 2840 c0 -13 5 -20 13 -17 6 2 12 10 12 17 0 7 -6 15 -12 18 -8
2 -13 -5 -13 -18z"/>
<path d="M790 2820 c0 -11 -7 -23 -15 -26 -19 -8 -20 -24 -1 -24 10 0 16 -14
18 -42 3 -36 7 -44 27 -46 30 -5 71 6 71 18 0 5 -17 8 -37 7 -36 -2 -38 0 -41
31 -3 30 -1 32 27 32 17 0 31 5 31 10 0 6 -13 10 -30 10 -23 0 -30 5 -30 19 0
11 -4 23 -10 26 -5 3 -10 -3 -10 -15z"/>
<path d="M130 2813 c0 -5 22 -17 48 -29 l47 -21 -47 -23 c-45 -22 -61 -40 -38
-40 17 0 120 54 120 63 0 8 -102 57 -120 57 -6 0 -10 -3 -10 -7z"/>
<path d="M455 2739 c0 -55 2 -59 23 -59 12 0 22 5 22 10 0 6 -4 10 -10 10 -16
0 -12 56 5 70 24 20 45 4 45 -35 0 -19 -4 -35 -10 -35 -5 0 -10 -4 -10 -10 0
-5 14 -10 30 -10 17 0 30 5 30 10 0 6 -4 10 -10 10 -5 0 -10 17 -10 38 0 52
-9 61 -60 60 l-45 0 0 -59z"/>
<path d="M617 2782 c-38 -42 -8 -102 50 -102 55 0 85 67 45 103 -25 22 -75 21
-95 -1z m87 -24 c15 -24 -3 -52 -37 -56 -33 -4 -53 28 -37 59 14 25 58 23 74
-3z"/>
<path d="M1065 2740 c0 -56 2 -60 23 -60 12 0 22 5 22 10 0 6 -4 10 -10 10
-14 0 -13 67 1 76 16 10 29 -15 29 -58 0 -25 5 -38 14 -38 10 0 12 12 8 51 -4
41 -2 51 9 47 9 -3 15 -22 17 -51 2 -31 8 -47 16 -47 10 0 12 12 9 48 -7 71
-6 70 -75 71 l-63 1 0 -60z"/>
<path d="M1250 2790 c0 -5 7 -10 15 -10 11 0 15 -11 15 -40 0 -36 -2 -40 -25
-40 -14 0 -25 -4 -25 -10 0 -6 27 -10 60 -10 33 0 60 4 60 10 0 6 -11 10 -25
10 -23 0 -25 3 -25 50 0 47 -2 50 -25 50 -14 0 -25 -4 -25 -10z"/>
<path d="M1380 2789 c0 -5 5 -9 10 -9 6 0 10 -18 10 -40 0 -22 -4 -40 -10 -40
-5 0 -10 -4 -10 -10 0 -5 10 -10 23 -10 21 0 23 4 23 47 -1 37 3 48 16 51 25
5 46 -43 30 -69 -17 -26 -15 -29 12 -29 23 0 24 3 19 43 -9 68 -17 76 -73 75
-28 0 -50 -4 -50 -9z"/>
<path d="M1556 2784 c-9 -8 -16 -28 -16 -44 0 -16 7 -36 16 -44 20 -20 74 -21
100 -1 18 14 16 15 -27 9 -34 -4 -48 -2 -58 10 -12 14 -8 16 37 16 59 0 70 11
48 45 -19 29 -75 34 -100 9z m82 -21 c2 -9 -8 -13 -32 -13 -34 0 -44 8 -29 24
11 11 56 2 61 -11z"/>
<path d="M1740 2715 c-15 -18 -5 -35 21 -35 12 0 19 7 19 19 0 24 -25 34 -40
16z"/>
<path d="M455 2465 c0 -81 1 -85 23 -85 12 0 22 5 22 10 0 6 -4 10 -10 10 -16
0 -12 56 5 70 24 20 45 4 45 -35 0 -19 -4 -35 -10 -35 -5 0 -10 -4 -10 -10 0
-5 14 -10 30 -10 17 0 30 5 30 10 0 6 -4 10 -10 10 -5 0 -10 17 -10 39 0 45
-19 65 -55 59 -22 -5 -25 -2 -25 23 0 17 -5 29 -12 29 -10 0 -13 -24 -13 -85z"/>
<path d="M1122 2538 c-7 -7 -12 -18 -12 -25 0 -7 -7 -13 -15 -13 -8 0 -15 -4
-15 -10 0 -5 7 -10 15 -10 11 0 15 -11 15 -40 0 -29 -4 -40 -15 -40 -8 0 -15
-4 -15 -10 0 -5 23 -10 50 -10 28 0 50 5 50 10 0 6 -12 10 -26 10 -23 0 -25 3
-22 38 3 32 7 37 31 40 33 4 26 22 -9 22 -34 0 -26 24 9 28 15 2 27 8 27 13 0
13 -54 11 -68 -3z"/>
<path d="M982 2528 c-5 -7 -15 -31 -22 -53 -14 -47 -1 -114 27 -136 15 -13 16
-11 9 11 -15 53 -18 109 -6 144 13 40 10 55 -8 34z"/>
<path d="M2205 2519 c11 -32 12 -138 1 -169 l-8 -25 22 22 c30 29 39 107 16
151 -21 40 -43 55 -31 21z"/>
<path d="M172 2433 c3 -93 4 -98 26 -101 12 -2 22 1 22 7 0 6 -4 11 -10 11
-15 0 -13 167 3 173 6 3 -1 6 -16 6 l-28 1 3 -97z"/>
<path d="M813 2519 c23 -14 26 -156 2 -165 -23 -9 -18 -26 8 -22 21 3 22 8 25
101 l3 97 -28 0 c-24 -1 -25 -2 -10 -11z"/>
<path d="M270 2491 c0 -6 4 -12 9 -15 4 -3 14 -26 21 -51 14 -51 34 -59 45
-17 l7 27 10 -28 c6 -15 15 -26 21 -24 7 2 44 92 47 115 0 1 -11 2 -25 2 -24
0 -35 -15 -15 -22 11 -3 2 -48 -10 -48 -4 0 -10 9 -13 20 -7 28 -24 25 -32 -7
l-7 -28 -11 30 c-7 21 -7 30 2 33 22 7 10 22 -19 22 -16 0 -30 -4 -30 -9z"/>
<path d="M617 2482 c-38 -42 -8 -102 50 -102 55 0 85 67 45 103 -25 22 -75 21
-95 -1z m87 -24 c15 -24 -3 -52 -37 -56 -33 -4 -53 28 -37 59 14 25 58 23 74
-3z"/>
<path d="M1245 2486 c-11 -8 -18 -26 -18 -46 0 -38 23 -60 65 -60 33 0 68 31
68 60 0 48 -72 77 -115 46z m75 -21 c26 -32 -13 -81 -47 -59 -35 22 -23 74 17
74 10 0 23 -7 30 -15z"/>
<path d="M1397 2482 c-38 -42 -8 -102 50 -102 55 0 85 67 45 103 -25 22 -75
21 -95 -1z m87 -24 c15 -24 -3 -52 -37 -56 -33 -4 -53 28 -37 59 14 25 58 23
74 -3z"/>
<path d="M1706 2478 c-9 -12 -16 -29 -16 -38 0 -31 30 -60 61 -60 36 0 72 17
64 31 -4 5 -14 5 -27 -2 -30 -16 -68 -3 -68 24 0 43 44 63 70 32 16 -19 36 -4
27 19 -5 11 -20 16 -51 16 -35 0 -48 -5 -60 -22z"/>
<path d="M1867 2482 c-38 -42 -8 -102 50 -102 55 0 85 67 45 103 -25 22 -75
21 -95 -1z m87 -24 c15 -24 -3 -52 -37 -56 -33 -4 -53 28 -37 59 14 25 58 23
74 -3z"/>
<path d="M1990 2490 c0 -6 5 -10 10 -10 6 0 10 -18 10 -40 0 -22 -4 -40 -10
-40 -5 0 -10 -4 -10 -10 0 -5 14 -10 30 -10 17 0 30 5 30 10 0 6 -5 10 -11 10
-15 0 -7 72 9 78 8 2 12 -11 12 -47 0 -44 3 -51 20 -51 11 0 20 5 20 10 0 6
-4 10 -10 10 -12 0 -13 50 -1 69 15 24 31 1 31 -45 0 -32 4 -44 14 -44 11 0
14 9 10 38 -12 85 -7 80 -84 81 -39 0 -70 -4 -70 -9z"/>
<path d="M1591 2421 c-17 -11 -7 -41 13 -41 22 0 30 20 15 36 -9 8 -19 10 -28
5z"/>
<path d="M155 2250 c-3 -6 6 -15 21 -20 41 -16 54 -6 17 13 -20 11 -34 13 -38
7z"/>
<path d="M1256 2233 c-3 -3 -6 -15 -6 -25 0 -10 -7 -18 -17 -18 -17 -1 -17 -1
0 -14 9 -7 17 -23 17 -35 0 -56 51 -81 96 -46 18 15 16 15 -23 10 l-43 -7 0
36 c0 31 3 36 24 36 14 0 28 5 31 10 4 6 -7 10 -24 10 -24 0 -31 4 -31 19 0
21 -13 34 -24 24z"/>
<path d="M465 2186 c-11 -8 -18 -26 -18 -46 0 -54 62 -80 109 -46 27 20 14 28
-23 14 -35 -13 -63 1 -63 31 0 37 46 54 70 26 18 -22 30 -18 30 10 0 23 -4 25
-43 25 -24 0 -52 -6 -62 -14z"/>
<path d="M617 2182 c-38 -42 -8 -102 50 -102 55 0 85 67 45 103 -25 22 -75 21
-95 -1z m87 -24 c15 -24 -3 -52 -37 -56 -33 -4 -53 28 -37 59 14 25 58 23 74
-3z"/>
<path d="M755 2140 c0 -56 2 -60 23 -60 12 0 22 5 22 10 0 6 -4 10 -10 10 -14
0 -13 67 1 76 16 10 29 -15 29 -58 0 -25 5 -38 14 -38 10 0 12 12 8 51 -4 41
-2 51 9 47 9 -3 15 -22 17 -51 2 -31 8 -47 16 -47 10 0 12 12 9 48 -7 71 -6
70 -75 71 l-63 1 0 -60z"/>
<path d="M915 2114 l0 -84 38 0 c23 0 36 4 32 10 -3 6 -13 10 -21 10 -8 0 -14
8 -14 18 0 15 6 18 29 14 20 -3 35 2 50 17 47 47 11 100 -66 99 l-48 0 0 -84z
m93 54 c17 -17 15 -43 -4 -59 -31 -26 -70 25 -44 56 15 18 32 19 48 3z"/>
<path d="M1060 2190 c0 -5 5 -10 10 -10 6 0 10 -17 10 -39 0 -21 6 -43 13 -49
15 -13 107 -14 107 -1 0 5 -4 9 -10 9 -5 0 -10 23 -10 50 0 43 -3 50 -20 50
-11 0 -20 -4 -20 -10 0 -5 5 -10 11 -10 6 0 9 -16 7 -37 -2 -28 -8 -39 -22
-41 -24 -5 -36 14 -36 61 0 30 -4 37 -20 37 -11 0 -20 -4 -20 -10z"/>
<path d="M1397 2182 c-22 -24 -21 -65 1 -85 19 -18 50 -21 90 -11 39 11 24 24
-24 21 -30 -1 -48 2 -51 11 -3 8 9 12 41 12 54 0 69 19 41 50 -23 25 -76 26
-98 2z m81 -19 c2 -9 -8 -13 -32 -13 -34 0 -44 8 -29 24 11 11 56 2 61 -11z"/>
<path d="M1550 2190 c0 -5 5 -10 10 -10 6 0 10 -18 10 -40 0 -29 -4 -40 -15
-40 -8 0 -15 -4 -15 -10 0 -5 23 -10 50 -10 28 0 50 5 50 10 0 6 -11 10 -25
10 -20 0 -25 5 -25 23 0 29 31 60 55 55 10 -2 20 3 22 10 6 16 -49 16 -65 0
-9 -9 -12 -9 -12 0 0 7 -9 12 -20 12 -11 0 -20 -4 -20 -10z"/>
<path d="M1710 2185 c-17 -21 -6 -43 27 -51 46 -10 53 -13 53 -24 0 -13 -57
-13 -65 0 -11 17 -25 11 -25 -11 0 -18 5 -20 53 -17 50 3 52 4 52 33 0 27 -4
31 -34 35 -41 6 -55 30 -17 30 13 0 28 -5 31 -10 8 -13 25 -3 25 16 0 20 -83
19 -100 -1z"/>
<path d="M1900 2120 c-18 -11 -4 -42 17 -38 10 2 19 10 21 19 4 19 -19 31 -38
19z"/>
<path d="M460 1940 c0 -5 9 -10 20 -10 18 0 20 -7 20 -65 0 -58 -2 -65 -20
-65 -11 0 -20 -4 -20 -10 0 -5 25 -10 55 -10 30 0 55 5 55 10 0 6 -11 10 -25
10 -24 0 -25 2 -25 75 l0 75 -30 0 c-16 0 -30 -4 -30 -10z"/>
<path d="M910 1941 c0 -6 5 -11 10 -11 6 0 10 -28 10 -65 0 -37 -4 -65 -10
-65 -5 0 -10 -5 -10 -11 0 -6 10 -9 22 -7 16 2 24 12 28 32 5 28 5 28 23 8 11
-12 16 -26 12 -31 -4 -7 5 -11 24 -11 17 0 31 2 31 5 0 3 -14 18 -32 34 -28
25 -30 31 -19 45 7 9 20 16 27 16 8 0 14 5 14 10 0 6 -13 10 -29 10 -21 0 -31
-6 -36 -22 -7 -19 -9 -15 -14 22 -5 37 -10 46 -28 48 -13 2 -23 -1 -23 -7z"/>
<path d="M1555 1940 c-3 -5 3 -10 14 -10 19 0 21 -6 21 -65 0 -58 -2 -65 -20
-65 -11 0 -20 -4 -20 -10 0 -5 25 -10 55 -10 54 0 77 15 33 22 -21 3 -23 9
-26 76 -3 69 -4 72 -27 72 -13 0 -27 -4 -30 -10z"/>
<path d="M1870 1941 c0 -5 9 -11 20 -14 17 -4 20 -14 20 -66 0 -58 -1 -61 -25
-61 -14 0 -25 -4 -25 -10 0 -5 24 -10 54 -10 30 0 58 5 61 10 4 6 -5 10 -19
10 -26 0 -26 1 -26 75 l0 75 -30 0 c-16 0 -30 -4 -30 -9z"/>
<path d="M185 1929 c-10 -15 4 -99 16 -99 5 0 9 25 9 55 0 51 -10 69 -25 44z"/>
<path d="M1120 1885 c0 -30 4 -55 9 -55 13 0 21 27 21 71 0 28 -4 39 -15 39
-12 0 -15 -13 -15 -55z"/>
<path d="M1441 1909 c-27 -44 -27 -104 1 -149 21 -36 38 -28 19 9 -14 26 -14
90 0 130 16 45 4 50 -20 10z"/>
<path d="M2675 1919 c11 -32 12 -138 1 -169 l-8 -25 22 22 c30 29 39 107 16
151 -21 40 -43 55 -31 21z"/>
<path d="M330 1830 l0 -100 25 0 c14 0 25 5 25 10 0 6 -7 10 -15 10 -24 0 -22
155 3 169 14 9 13 10 -10 11 l-28 0 0 -100z"/>
<path d="M1273 1923 c14 -4 17 -17 17 -88 0 -71 -3 -84 -17 -88 -17 -4 -17 -4
0 -12 39 -17 47 -1 47 100 l0 95 -32 -1 c-18 -1 -25 -3 -15 -6z"/>
<path d="M617 1882 c-38 -42 -8 -102 50 -102 55 0 85 67 45 103 -25 22 -75 21
-95 -1z m87 -24 c15 -24 -3 -52 -37 -56 -33 -4 -53 28 -37 59 14 25 58 23 74
-3z"/>
<path d="M776 1884 c-20 -20 -20 -68 0 -88 21 -22 77 -20 97 2 22 24 21 65 -1
85 -23 21 -76 22 -96 1z m84 -24 c8 -14 8 -26 0 -40 -19 -35 -80 -20 -80 20 0
40 61 55 80 20z"/>
<path d="M1706 1878 c-32 -45 -6 -98 48 -98 50 0 71 22 67 72 -3 48 -87 67
-115 26z m88 -20 c16 -26 -4 -53 -40 -53 -23 0 -30 5 -32 23 -2 13 -1 30 2 38
8 20 56 14 70 -8z"/>
<path d="M2180 1885 c-17 -21 -6 -43 27 -51 47 -10 54 -14 48 -24 -8 -13 -52
-13 -60 0 -10 17 -25 11 -25 -10 0 -17 7 -20 44 -20 75 0 94 59 23 71 -20 3
-40 9 -44 12 -12 13 29 19 53 9 21 -10 24 -9 24 8 0 17 -7 20 -39 20 -22 0
-44 -6 -51 -15z"/>
<path d="M2310 1891 c0 -5 3 -11 8 -13 4 -1 17 -24 29 -50 13 -27 29 -48 36
-48 7 0 24 24 37 53 13 28 25 55 28 60 2 4 -10 7 -27 7 -30 0 -43 -14 -20 -22
7 -2 6 -15 -4 -38 l-15 -35 -15 35 c-9 19 -11 37 -6 38 21 8 7 22 -21 22 -16
0 -30 -4 -30 -9z"/>
<path d="M2495 1884 c-19 -20 -19 -68 0 -84 8 -7 28 -10 45 -8 52 8 33 -35
-20 -44 -22 -4 -23 -5 -6 -13 10 -4 30 -4 45 1 24 9 26 14 29 77 2 37 7 67 12
67 6 0 10 4 10 9 0 16 -98 11 -115 -5z m65 -19 c20 -25 8 -50 -25 -50 -21 0
-31 5 -33 18 -4 21 14 47 33 47 7 0 18 -7 25 -15z"/>
<path d="M175 1811 c-9 -16 3 -31 26 -31 14 0 19 6 17 17 -4 20 -33 29 -43 14z"/>
<path d="M1117 1814 c-16 -16 -6 -35 16 -32 12 2 22 10 22 18 0 16 -26 25 -38
14z"/>
<path d="M2050 1800 c0 -23 35 -28 43 -6 7 18 -1 26 -25 26 -11 0 -18 -7 -18
-20z"/>
<path d="M185 1642 c-30 -6 -43 -22 -17 -22 20 0 22 -5 22 -60 0 -53 -2 -60
-20 -60 -11 0 -20 -4 -20 -10 0 -5 23 -10 50 -10 28 0 50 5 50 10 0 6 -9 10
-20 10 -17 0 -19 8 -22 73 -3 66 -5 72 -23 69z"/>
<path d="M990 1640 c0 -5 5 -10 10 -10 6 0 10 -8 10 -18 0 -15 -6 -18 -29 -14
-56 8 -94 -64 -53 -101 19 -17 122 -22 122 -6 0 5 -4 9 -10 9 -6 0 -10 32 -10
75 0 68 -2 75 -20 75 -11 0 -20 -4 -20 -10z m14 -82 c15 -25 -4 -53 -35 -53
-19 0 -25 6 -27 29 -5 45 38 61 62 24z"/>
<path d="M2036 1633 c-3 -3 -6 -15 -6 -25 0 -10 -7 -18 -17 -18 -17 -1 -17 -1
0 -14 9 -7 17 -23 17 -35 0 -56 51 -81 96 -46 18 15 16 15 -23 10 l-43 -7 0
36 c0 31 3 36 24 36 14 0 28 5 31 10 4 6 -7 10 -24 10 -24 0 -31 4 -31 19 0
21 -13 34 -24 24z"/>
<path d="M1880 1610 c0 -11 -7 -20 -15 -20 -8 0 -15 -4 -15 -10 0 -5 7 -10 15
-10 10 0 15 -10 15 -33 0 -18 5 -38 12 -45 13 -13 47 -16 72 -6 29 11 17 23
-21 21 -36 -2 -38 0 -41 31 -3 30 -1 32 27 32 17 0 31 5 31 10 0 6 -13 10 -30
10 -23 0 -30 4 -30 20 0 11 -4 20 -10 20 -5 0 -10 -9 -10 -20z"/>
<path d="M617 1582 c-38 -42 -8 -102 50 -102 55 0 85 67 45 103 -25 22 -75 21
-95 -1z m87 -24 c15 -24 -3 -52 -37 -56 -33 -4 -53 28 -37 59 14 25 58 23 74
-3z"/>
<path d="M770 1590 c0 -5 5 -10 10 -10 6 0 10 -18 10 -40 0 -29 -4 -40 -15
-40 -8 0 -15 -4 -15 -10 0 -5 23 -10 50 -10 28 0 50 5 50 10 0 6 -11 10 -25
10 -20 0 -25 5 -25 23 0 29 31 60 55 55 10 -2 20 3 22 10 6 16 -49 16 -65 0
-9 -9 -12 -9 -12 0 0 7 -9 12 -20 12 -11 0 -20 -4 -20 -10z"/>
<path d="M1086 1584 c-20 -20 -20 -68 0 -88 20 -20 74 -21 100 -1 18 14 16 15
-27 9 -34 -4 -48 -2 -58 10 -12 14 -8 16 37 16 59 0 70 11 48 45 -19 29 -75
34 -100 9z m82 -21 c2 -9 -8 -13 -32 -13 -34 0 -44 8 -29 24 11 11 56 2 61
-11z"/>
<path d="M1230 1590 c0 -5 7 -10 15 -10 11 0 15 -11 15 -40 0 -29 -4 -40 -15
-40 -8 0 -15 -4 -15 -10 0 -5 23 -10 50 -10 28 0 50 5 50 10 0 6 -11 10 -25
10 -21 0 -25 5 -25 30 0 30 27 54 53 48 6 -2 13 2 15 7 4 15 -37 18 -54 5 -10
-9 -14 -9 -14 -1 0 6 -11 11 -25 11 -14 0 -25 -4 -25 -10z"/>
<path d="M1535 1540 c0 -56 2 -60 23 -60 12 0 22 5 22 10 0 6 -4 10 -10 10
-14 0 -13 67 1 76 16 10 29 -15 29 -58 0 -25 5 -38 14 -38 10 0 12 12 8 51 -4
41 -2 51 9 47 9 -3 15 -22 17 -51 2 -31 8 -47 16 -47 10 0 12 12 9 48 -7 71
-6 70 -75 71 l-63 1 0 -60z"/>
<path d="M1717 1593 c-16 -15 -5 -21 28 -16 23 4 35 2 35 -6 0 -6 -10 -11 -23
-11 -35 0 -59 -22 -55 -51 3 -22 7 -24 66 -26 34 0 62 3 62 8 0 5 -4 9 -10 9
-5 0 -10 14 -10 31 0 48 -16 69 -54 69 -18 0 -36 -3 -39 -7z m61 -70 c-4 -20
-35 -30 -50 -15 -15 15 0 32 28 32 19 0 25 -5 22 -17z"/>
<path d="M2177 1582 c-22 -24 -21 -65 1 -85 19 -18 50 -21 90 -11 39 11 24 24
-24 21 -30 -1 -48 2 -51 11 -3 8 9 12 41 12 54 0 69 19 41 50 -23 25 -76 26
-98 2z m81 -19 c2 -9 -8 -13 -32 -13 -34 0 -44 8 -29 24 11 11 56 2 61 -11z"/>
<path d="M2330 1590 c0 -5 5 -10 10 -10 6 0 10 -18 10 -40 0 -29 -4 -40 -15
-40 -8 0 -15 -4 -15 -10 0 -5 23 -10 50 -10 28 0 50 5 50 10 0 6 -11 10 -25
10 -20 0 -25 5 -25 23 0 29 31 60 55 55 10 -2 20 3 22 10 6 16 -49 16 -65 0
-9 -9 -12 -9 -12 0 0 7 -9 12 -20 12 -11 0 -20 -4 -20 -10z"/>
<path d="M2490 1585 c-17 -21 -6 -43 27 -51 46 -10 53 -13 53 -24 0 -13 -57
-13 -65 0 -11 17 -25 11 -25 -11 0 -18 5 -20 53 -17 50 3 52 4 52 33 0 27 -4
31 -34 35 -41 6 -55 30 -17 30 13 0 28 -5 31 -10 8 -13 25 -3 25 16 0 20 -83
19 -100 -1z"/>
<path d="M341 1521 c-17 -11 -7 -41 13 -41 22 0 30 20 15 36 -9 8 -19 10 -28
5z"/>
<path d="M655 1350 c-7 -12 2 -30 16 -30 5 0 9 9 9 20 0 21 -15 27 -25 10z"/>
<path d="M1280 1340 c0 -13 5 -20 13 -17 6 2 12 10 12 17 0 7 -6 15 -12 18 -8
2 -13 -5 -13 -18z"/>
<path d="M168 1339 c-10 -5 -18 -17 -18 -25 0 -13 2 -13 21 0 24 17 49 11 49
-11 0 -9 -18 -35 -40 -59 -22 -24 -40 -48 -40 -54 0 -15 102 -8 107 7 3 9 -7
10 -34 6 l-38 -6 26 29 c40 44 51 71 40 93 -16 30 -44 37 -73 20z"/>
<path d="M1075 1265 c0 -79 1 -85 21 -85 18 0 20 6 20 48 -1 41 2 47 19 47 17
0 20 -6 19 -47 0 -44 2 -48 23 -48 13 0 23 5 23 10 0 6 -4 10 -9 10 -6 0 -11
21 -13 48 -3 45 -4 47 -33 47 -24 0 -31 5 -35 25 -3 14 -12 26 -20 28 -12 2
-15 -13 -15 -83z"/>
<path d="M1540 1340 c0 -5 5 -10 10 -10 6 0 10 -28 10 -65 0 -37 -4 -65 -10
-65 -5 0 -10 -4 -10 -10 0 -5 9 -10 20 -10 15 0 20 7 20 26 0 31 20 28 35 -4
6 -13 19 -22 32 -22 30 0 29 6 -7 37 -37 30 -37 40 -5 55 14 6 25 15 25 20 0
4 -11 8 -25 8 -15 0 -25 -6 -25 -14 0 -8 -7 -16 -15 -20 -12 -4 -15 4 -15 39
0 38 -3 45 -20 45 -11 0 -20 -4 -20 -10z"/>
<path d="M947 1334 c-4 -4 -7 -16 -7 -26 0 -10 -7 -18 -15 -18 -8 0 -15 -4
-15 -10 0 -5 7 -10 15 -10 10 0 15 -10 15 -33 0 -18 5 -38 12 -45 20 -20 88
-12 88 10 0 6 -13 7 -31 3 -35 -8 -49 4 -49 43 0 18 6 22 30 22 37 0 40 18 3
22 -19 2 -29 10 -33 26 -3 13 -8 20 -13 16z"/>
<path d="M620 1290 c0 -5 9 -10 20 -10 17 0 20 -7 20 -40 0 -36 -2 -40 -25
-40 -14 0 -25 -4 -25 -10 0 -6 27 -10 60 -10 33 0 60 4 60 10 0 6 -11 10 -25
10 -23 0 -25 3 -25 50 0 49 -1 50 -30 50 -16 0 -30 -4 -30 -10z"/>
<path d="M1250 1290 c0 -5 7 -10 15 -10 11 0 15 -11 15 -40 0 -36 -2 -40 -25
-40 -14 0 -25 -4 -25 -10 0 -6 27 -10 60 -10 33 0 60 4 60 10 0 6 -11 10 -25
10 -23 0 -25 3 -25 50 0 47 -2 50 -25 50 -14 0 -25 -4 -25 -10z"/>
<path d="M1380 1289 c0 -5 5 -9 10 -9 6 0 10 -18 10 -40 0 -22 -4 -40 -10 -40
-5 0 -10 -4 -10 -10 0 -5 10 -10 23 -10 21 0 23 4 23 47 -1 37 3 48 16 51 25
5 46 -43 30 -69 -17 -26 -15 -29 12 -29 23 0 24 3 19 43 -9 68 -17 76 -73 75
-28 0 -50 -4 -50 -9z"/>
<path d="M341 1221 c-17 -11 -7 -41 13 -41 22 0 30 20 15 36 -9 8 -19 10 -28
5z"/>
<path d="M480 1024 c0 -21 4 -33 10 -29 6 3 10 19 10 36 0 16 -4 29 -10 29 -5
0 -10 -16 -10 -36z"/>
<path d="M520 1031 c0 -34 19 -53 22 -22 0 12 1 26 2 33 1 6 -5 13 -11 16 -9
2 -13 -7 -13 -27z"/>
<path d="M655 1050 c-7 -12 2 -30 16 -30 5 0 9 9 9 20 0 21 -15 27 -25 10z"/>
<path d="M1905 1051 c-8 -14 5 -62 16 -55 12 7 12 51 0 59 -5 3 -12 1 -16 -4z"/>
<path d="M2190 1031 c0 -16 5 -33 10 -36 6 -4 10 5 10 19 0 14 0 29 1 33 0 4
-4 9 -10 11 -6 2 -11 -9 -11 -27z"/>
<path d="M2240 1024 c0 -21 4 -33 10 -29 6 3 10 19 10 36 0 16 -4 29 -10 29
-5 0 -10 -16 -10 -36z"/>
<path d="M1145 1040 c-3 -5 1 -10 9 -10 9 0 16 -9 16 -20 0 -16 -5 -19 -30
-13 -40 8 -70 -19 -70 -62 0 -44 16 -54 78 -53 41 1 52 5 47 16 -3 7 -5 45 -5
83 0 62 -2 69 -19 69 -11 0 -23 -4 -26 -10z m9 -76 c19 -18 19 -20 6 -45 -6
-10 -19 -19 -28 -19 -36 0 -55 43 -30 68 16 16 33 15 52 -4z"/>
<path d="M790 1020 c0 -11 -7 -23 -15 -26 -19 -8 -20 -24 -1 -24 10 0 16 -14
18 -42 3 -36 7 -44 27 -46 30 -5 71 6 71 18 0 5 -17 8 -37 7 -36 -2 -38 0 -41
31 -3 30 -1 32 27 32 17 0 31 5 31 10 0 6 -13 10 -30 10 -23 0 -30 5 -30 19 0
11 -4 23 -10 26 -5 3 -10 -3 -10 -15z"/>
<path d="M2036 1033 c-3 -3 -6 -15 -6 -25 0 -10 -7 -18 -17 -18 -17 -1 -17 -1
0 -14 9 -7 17 -23 17 -35 0 -56 51 -81 96 -46 18 15 16 15 -23 10 l-43 -7 0
36 c0 31 3 36 24 36 14 0 28 5 31 10 4 6 -7 10 -24 10 -24 0 -31 4 -31 19 0
21 -13 34 -24 24z"/>
<path d="M620 990 c0 -5 9 -10 20 -10 17 0 20 -7 20 -40 0 -36 -2 -40 -25 -40
-14 0 -25 -4 -25 -10 0 -6 27 -10 60 -10 33 0 60 4 60 10 0 6 -11 10 -25 10
-23 0 -25 3 -25 50 0 49 -1 50 -30 50 -16 0 -30 -4 -30 -10z"/>
<path d="M1245 986 c-11 -8 -18 -26 -18 -46 0 -38 23 -60 65 -60 33 0 68 31
68 60 0 48 -72 77 -115 46z m75 -21 c26 -32 -13 -81 -47 -59 -35 22 -23 74 17
74 10 0 23 -7 30 -15z"/>
<path d="M1397 982 c-22 -24 -21 -65 1 -85 19 -18 50 -21 90 -11 39 11 24 24
-24 21 -30 -1 -48 2 -51 11 -3 8 9 12 41 12 54 0 69 19 41 50 -23 25 -76 26
-98 2z m81 -19 c2 -9 -8 -13 -32 -13 -34 0 -44 8 -29 24 11 11 56 2 61 -11z"/>
<path d="M1557 993 c-4 -3 -7 -16 -7 -29 0 -23 17 -34 56 -34 15 0 24 -6 24
-15 0 -17 -45 -21 -55 -5 -10 17 -25 11 -25 -10 0 -17 7 -20 44 -20 47 0 72
19 62 45 -6 16 -12 19 -58 29 -16 4 -28 11 -28 16 0 13 47 13 55 0 10 -17 25
-11 25 10 0 17 -7 20 -43 20 -24 0 -47 -3 -50 -7z"/>
<path d="M1690 989 c0 -5 5 -9 10 -9 6 0 10 -18 10 -40 0 -22 -4 -40 -10 -40
-5 0 -10 -4 -10 -10 0 -5 14 -10 30 -10 17 0 30 5 30 10 0 6 -4 10 -10 10 -11
0 -13 39 -4 64 8 21 40 21 48 0 9 -25 7 -64 -4 -64 -5 0 -10 -4 -10 -10 0 -5
14 -10 30 -10 17 0 30 5 30 10 0 6 -4 10 -10 10 -5 0 -10 17 -10 39 0 21 -6
43 -13 49 -15 13 -107 14 -107 1z"/>
<path d="M140 940 c0 -6 27 -10 60 -10 33 0 60 4 60 10 0 6 -27 10 -60 10 -33
0 -60 -4 -60 -10z"/>
<path d="M814 746 c-8 -22 3 -33 18 -18 9 9 9 15 0 24 -9 9 -13 7 -18 -6z"/>
<path d="M2060 740 c0 -13 5 -20 13 -17 6 2 12 10 12 17 0 7 -6 15 -12 18 -8
2 -13 -5 -13 -18z"/>
<path d="M2374 746 c-8 -22 3 -33 18 -18 9 9 9 15 0 24 -9 9 -13 7 -18 -6z"/>
<path d="M2685 750 c-7 -12 2 -30 16 -30 5 0 9 9 9 20 0 21 -15 27 -25 10z"/>
<path d="M990 740 c0 -5 5 -10 10 -10 6 0 10 -8 10 -18 0 -15 -6 -18 -29 -14
-56 8 -94 -64 -53 -101 19 -17 122 -22 122 -6 0 5 -4 9 -10 9 -6 0 -10 32 -10
75 0 68 -2 75 -20 75 -11 0 -20 -4 -20 -10z m14 -82 c15 -25 -4 -53 -35 -53
-19 0 -25 6 -27 29 -5 45 38 61 62 24z"/>
<path d="M1380 740 c0 -5 5 -10 10 -10 6 0 10 -28 10 -65 0 -37 -4 -65 -10
-65 -5 0 -10 -4 -10 -10 0 -5 10 -10 23 -10 21 0 23 4 23 48 -1 41 2 47 19 47
17 0 20 -6 19 -47 0 -43 2 -48 22 -48 20 0 22 4 17 43 -9 64 -20 80 -54 75
-26 -4 -29 -2 -29 24 0 21 -5 28 -20 28 -11 0 -20 -4 -20 -10z"/>
<path d="M2160 740 c0 -5 5 -10 10 -10 6 0 10 -28 10 -65 0 -37 -4 -65 -10
-65 -5 0 -10 -4 -10 -10 0 -5 10 -10 23 -10 21 0 23 4 23 48 -1 41 2 47 19 47
17 0 20 -6 19 -47 0 -43 2 -48 22 -48 20 0 22 4 17 43 -9 64 -20 80 -54 75
-26 -4 -29 -2 -29 24 0 21 -5 28 -20 28 -11 0 -20 -4 -20 -10z"/>
<path d="M2490 740 c0 -5 9 -10 20 -10 18 0 20 -7 20 -65 0 -63 -1 -65 -25
-65 -14 0 -25 -4 -25 -10 0 -6 27 -10 60 -10 33 0 60 4 60 10 0 6 -11 10 -25
10 -24 0 -25 2 -25 75 l0 75 -30 0 c-16 0 -30 -4 -30 -10z"/>
<path d="M1256 733 c-3 -3 -6 -15 -6 -25 0 -10 -7 -18 -17 -18 -17 -1 -17 -1
0 -14 9 -7 17 -23 17 -35 0 -56 51 -81 96 -46 18 15 16 15 -23 10 l-43 -7 0
36 c0 31 3 36 24 36 14 0 28 5 31 10 4 6 -7 10 -24 10 -24 0 -31 4 -31 19 0
21 -13 34 -24 24z"/>
<path d="M2970 710 c0 -11 -7 -20 -15 -20 -8 0 -15 -4 -15 -10 0 -5 7 -10 15
-10 10 0 15 -10 15 -33 0 -18 5 -38 12 -45 13 -13 47 -16 72 -6 29 11 17 23
-21 21 -36 -2 -38 0 -41 31 -3 30 -1 32 27 32 17 0 31 5 31 10 0 6 -13 10 -30
10 -23 0 -30 4 -30 20 0 11 -4 20 -10 20 -5 0 -10 -9 -10 -20z"/>
<path d="M460 681 c-13 -26 11 -51 51 -51 19 0 29 -5 29 -15 0 -18 -33 -20
-60 -3 -22 14 -35 6 -27 -17 5 -10 20 -15 51 -15 36 0 48 4 56 21 15 27 -2 47
-42 51 -39 4 -51 28 -14 28 13 0 28 -4 31 -10 10 -17 25 -11 25 10 0 17 -7 20
-45 20 -34 0 -47 -5 -55 -19z"/>
<path d="M627 694 c-15 -16 -6 -23 22 -18 16 4 32 1 35 -5 5 -7 -4 -11 -23
-11 -37 0 -65 -34 -50 -61 7 -15 21 -18 64 -17 55 2 63 6 46 24 -5 5 -11 27
-13 49 -3 38 -5 40 -38 43 -20 2 -39 0 -43 -4z m63 -68 c0 -18 -39 -31 -52
-18 -15 15 0 32 28 32 14 0 24 -6 24 -14z"/>
<path d="M780 690 c0 -5 7 -10 15 -10 11 0 15 -11 15 -40 0 -33 -3 -40 -20
-40 -11 0 -20 -4 -20 -10 0 -5 24 -10 54 -10 30 0 58 5 61 10 4 6 -5 10 -19
10 -24 0 -26 3 -26 50 0 49 -1 50 -30 50 -16 0 -30 -4 -30 -10z"/>
<path d="M1556 684 c-9 -8 -16 -28 -16 -44 0 -16 7 -36 16 -44 20 -20 74 -21
100 -1 18 14 16 15 -27 9 -34 -4 -48 -2 -58 10 -12 14 -8 16 37 16 59 0 70 11
48 45 -19 29 -75 34 -100 9z m82 -21 c2 -9 -8 -13 -32 -13 -34 0 -44 8 -29 24
11 11 56 2 61 -11z"/>
<path d="M1850 689 c0 -5 5 -9 10 -9 6 0 10 -18 10 -40 0 -22 -4 -40 -10 -40
-5 0 -10 -4 -10 -10 0 -5 10 -10 23 -10 21 0 23 4 23 47 -1 37 3 48 16 51 25
5 46 -43 30 -69 -17 -26 -15 -29 12 -29 23 0 24 3 19 43 -9 68 -17 76 -73 75
-28 0 -50 -4 -50 -9z"/>
<path d="M2030 690 c0 -5 7 -10 15 -10 11 0 15 -11 15 -40 0 -36 -2 -40 -25
-40 -14 0 -25 -4 -25 -10 0 -6 27 -10 60 -10 33 0 60 4 60 10 0 6 -11 10 -25
10 -23 0 -25 3 -25 50 0 47 -2 50 -25 50 -14 0 -25 -4 -25 -10z"/>
<path d="M2340 690 c0 -5 7 -10 15 -10 11 0 15 -11 15 -40 0 -33 -3 -40 -20
-40 -11 0 -20 -4 -20 -10 0 -5 24 -10 54 -10 30 0 58 5 61 10 4 6 -5 10 -19
10 -24 0 -26 3 -26 50 0 49 -1 50 -30 50 -16 0 -30 -4 -30 -10z"/>
<path d="M2650 690 c0 -5 9 -10 20 -10 17 0 20 -7 20 -40 0 -36 -2 -40 -25
-40 -14 0 -25 -4 -25 -10 0 -6 27 -10 60 -10 33 0 60 4 60 10 0 6 -11 10 -25
10 -23 0 -25 3 -25 50 0 49 -1 50 -30 50 -16 0 -30 -4 -30 -10z"/>
<path d="M2800 681 c-13 -26 11 -51 51 -51 19 0 29 -5 29 -15 0 -18 -33 -20
-60 -3 -22 14 -35 6 -27 -17 5 -10 20 -15 51 -15 36 0 48 4 56 21 15 27 -2 47
-42 51 -39 4 -51 28 -14 28 13 0 28 -4 31 -10 10 -17 25 -11 25 10 0 17 -7 20
-45 20 -34 0 -47 -5 -55 -19z"/>
<path d="M140 640 c0 -6 27 -10 60 -10 33 0 60 4 60 10 0 6 -27 10 -60 10 -33
0 -60 -4 -60 -10z"/>
<path d="M155 450 c-3 -6 6 -15 21 -20 41 -16 54 -6 17 13 -20 11 -34 13 -38
7z"/>
<path d="M500 440 c0 -13 5 -20 13 -17 6 2 12 10 12 17 0 7 -6 15 -12 18 -8 2
-13 -5 -13 -18z"/>
<path d="M814 446 c-8 -22 3 -33 18 -18 9 9 9 15 0 24 -9 9 -13 7 -18 -6z"/>
<path d="M1124 446 c-8 -22 3 -33 18 -18 9 9 9 15 0 24 -9 9 -13 7 -18 -6z"/>
<path d="M1594 446 c-8 -22 3 -33 18 -18 9 9 9 15 0 24 -9 9 -13 7 -18 -6z"/>
<path d="M2840 440 c0 -13 5 -20 13 -17 6 2 12 10 12 17 0 7 -6 15 -12 18 -8
2 -13 -5 -13 -18z"/>
<path d="M1400 441 c0 -5 9 -11 20 -14 17 -4 20 -14 20 -66 0 -58 -1 -61 -25
-61 -14 0 -25 -4 -25 -10 0 -13 107 -13 115 0 4 6 -5 10 -19 10 -26 0 -26 1
-26 75 l0 75 -30 0 c-16 0 -30 -4 -30 -9z"/>
<path d="M3465 442 c-30 -6 -43 -22 -17 -22 20 0 22 -5 22 -60 0 -53 -2 -60
-20 -60 -11 0 -20 -4 -20 -10 0 -5 23 -10 50 -10 28 0 50 5 50 10 0 6 -9 10
-20 10 -17 0 -19 8 -22 73 -3 66 -5 72 -23 69z"/>
<path d="M5610 440 c0 -5 9 -10 20 -10 18 0 20 -7 20 -65 0 -63 -1 -65 -25
-65 -14 0 -25 -4 -25 -10 0 -6 27 -10 60 -10 33 0 60 4 60 10 0 6 -11 10 -25
10 -24 0 -25 2 -25 75 l0 75 -30 0 c-16 0 -30 -4 -30 -10z"/>
<path d="M5770 441 c0 -5 9 -11 20 -14 17 -4 20 -14 20 -66 0 -58 -1 -61 -25
-61 -14 0 -25 -4 -25 -10 0 -13 107 -13 115 0 4 6 -5 10 -19 10 -26 0 -26 1
-26 75 l0 75 -30 0 c-16 0 -30 -4 -30 -9z"/>
<path d="M947 434 c-4 -4 -7 -16 -7 -26 0 -10 -7 -18 -15 -18 -8 0 -15 -4 -15
-10 0 -5 7 -10 15 -10 10 0 15 -10 15 -33 0 -18 5 -38 12 -45 20 -20 88 -12
88 10 0 6 -13 7 -31 3 -35 -8 -49 4 -49 43 0 18 6 22 30 22 37 0 40 18 3 22
-19 2 -29 10 -33 26 -3 13 -8 20 -13 16z"/>
<path d="M4067 434 c-4 -4 -7 -16 -7 -26 0 -10 -7 -18 -15 -18 -8 0 -15 -4
-15 -10 0 -5 7 -10 15 -10 10 0 15 -10 15 -33 0 -18 5 -38 12 -45 20 -20 88
-12 88 10 0 6 -13 7 -31 3 -35 -8 -49 4 -49 43 0 18 6 22 30 22 37 0 40 18 3
22 -19 2 -29 10 -33 26 -3 13 -8 20 -13 16z"/>
<path d="M3735 420 c3 -5 13 -10 21 -10 10 0 14 -14 14 -55 0 -48 -2 -55 -20
-55 -11 0 -20 -4 -20 -10 0 -5 25 -10 55 -10 30 0 55 5 55 10 0 6 -9 10 -20
10 -18 0 -20 7 -20 55 0 48 2 55 20 55 11 0 20 5 20 10 0 6 -25 10 -56 10 -34
0 -53 -4 -49 -10z"/>
<path d="M470 390 c0 -5 7 -10 15 -10 11 0 15 -11 15 -40 0 -36 -2 -40 -25
-40 -14 0 -25 -4 -25 -10 0 -6 27 -10 60 -10 33 0 60 4 60 10 0 6 -11 10 -25
10 -23 0 -25 3 -25 50 0 47 -2 50 -25 50 -14 0 -25 -4 -25 -10z"/>
<path d="M600 389 c0 -5 5 -9 10 -9 6 0 10 -18 10 -40 0 -22 -4 -40 -10 -40
-5 0 -10 -4 -10 -10 0 -5 10 -10 23 -10 21 0 23 4 23 47 -1 37 3 48 16 51 25
5 46 -43 30 -69 -17 -26 -15 -29 12 -29 23 0 24 3 19 43 -9 68 -17 76 -73 75
-28 0 -50 -4 -50 -9z"/>
<path d="M780 390 c0 -5 7 -10 15 -10 11 0 15 -11 15 -40 0 -33 -3 -40 -20
-40 -11 0 -20 -4 -20 -10 0 -13 107 -13 115 0 4 6 -5 10 -19 10 -24 0 -26 3
-26 50 0 49 -1 50 -30 50 -16 0 -30 -4 -30 -10z"/>
<path d="M1090 390 c0 -5 7 -10 15 -10 11 0 15 -11 15 -40 0 -33 -3 -40 -20
-40 -11 0 -20 -4 -20 -10 0 -13 107 -13 115 0 4 6 -5 10 -19 10 -24 0 -26 3
-26 50 0 49 -1 50 -30 50 -16 0 -30 -4 -30 -10z"/>
<path d="M1245 390 c-7 -11 -1 -13 38 -10 15 1 27 -3 27 -9 0 -6 -10 -11 -23
-11 -35 0 -59 -22 -55 -51 3 -22 7 -24 66 -26 34 0 62 3 62 8 0 5 -4 9 -10 9
-5 0 -10 17 -10 38 0 21 -5 43 -12 50 -15 15 -74 16 -83 2z m75 -58 c0 -14
-23 -32 -41 -32 -24 0 -35 20 -18 31 18 11 59 12 59 1z"/>
<path d="M1560 390 c0 -5 7 -10 15 -10 11 0 15 -11 15 -40 0 -33 -3 -40 -20
-40 -11 0 -20 -4 -20 -10 0 -13 107 -13 115 0 4 6 -5 10 -19 10 -24 0 -26 3
-26 50 0 49 -1 50 -30 50 -16 0 -30 -4 -30 -10z"/>
<path d="M1710 380 c0 -11 5 -20 10 -20 6 0 10 5 10 10 0 6 12 10 27 10 l27 0
-42 -43 c-23 -24 -39 -46 -36 -50 4 -4 29 -7 56 -7 41 0 48 3 48 20 0 11 -4
20 -10 20 -5 0 -10 -4 -10 -10 0 -5 -12 -10 -27 -10 l-27 0 37 38 c50 51 48
62 -13 62 -43 0 -50 -3 -50 -20z"/>
<path d="M1867 382 c-22 -24 -21 -65 1 -85 19 -18 50 -21 90 -11 39 11 24 24
-24 21 -30 -1 -48 2 -51 11 -3 8 9 12 41 12 54 0 69 19 41 50 -23 25 -76 26
-98 2z m81 -19 c2 -9 -8 -13 -32 -13 -34 0 -44 8 -29 24 11 11 56 2 61 -11z"/>
<path d="M2150 390 c0 -5 4 -10 9 -10 5 0 18 -22 30 -50 12 -27 27 -50 35 -50
7 0 23 23 36 50 13 28 27 50 32 50 4 0 8 5 8 10 0 6 -13 10 -30 10 -16 0 -30
-4 -30 -10 0 -5 4 -10 10 -10 5 0 2 -16 -7 -35 l-17 -36 -14 26 c-7 14 -10 35
-7 45 5 17 2 20 -24 20 -17 0 -31 -4 -31 -10z"/>
<path d="M2336 384 c-9 -8 -16 -28 -16 -44 0 -16 7 -36 16 -44 20 -20 74 -21
100 -1 18 14 16 15 -27 9 -34 -4 -48 -2 -58 10 -12 14 -8 16 37 16 59 0 70 11
48 45 -19 29 -75 34 -100 9z m82 -21 c2 -9 -8 -13 -32 -13 -34 0 -44 8 -29 24
11 11 56 2 61 -11z"/>
<path d="M2480 390 c0 -5 7 -10 15 -10 11 0 15 -11 15 -36 0 -27 -5 -37 -20
-41 -39 -10 -19 -23 35 -23 30 0 55 5 55 10 0 6 -11 10 -25 10 -21 0 -25 5
-25 30 0 32 27 54 54 44 11 -4 16 -1 16 10 0 19 -40 22 -58 4 -9 -9 -12 -9
-12 0 0 7 -11 12 -25 12 -14 0 -25 -4 -25 -10z"/>
<path d="M2650 385 c-17 -21 -6 -43 27 -51 47 -10 54 -14 48 -24 -8 -13 -52
-13 -60 0 -10 17 -25 11 -25 -10 0 -17 7 -20 44 -20 75 0 94 59 23 71 -20 3
-40 9 -44 12 -12 13 29 19 53 9 21 -10 24 -9 24 8 0 17 -7 20 -39 20 -22 0
-44 -6 -51 -15z"/>
<path d="M2810 390 c0 -5 7 -10 15 -10 11 0 15 -11 15 -40 0 -36 -2 -40 -25
-40 -14 0 -25 -4 -25 -10 0 -6 27 -10 60 -10 33 0 60 4 60 10 0 6 -11 10 -25
10 -23 0 -25 3 -25 50 0 47 -2 50 -25 50 -14 0 -25 -4 -25 -10z"/>
<path d="M2957 382 c-38 -42 -8 -102 50 -102 55 0 85 67 45 103 -25 22 -75 21
-95 -1z m87 -24 c15 -24 -3 -52 -37 -56 -33 -4 -53 28 -37 59 14 25 58 23 74
-3z"/>
<path d="M3105 339 c0 -53 2 -59 21 -59 18 0 20 6 20 48 -1 41 2 47 19 47 17
0 20 -6 19 -47 0 -44 2 -48 23 -48 13 0 23 5 23 10 0 6 -4 10 -9 10 -6 0 -11
21 -13 48 l-3 47 -50 2 -50 2 0 -60z"/>
<path d="M3623 393 c-7 -3 -13 -13 -13 -24 0 -23 35 -26 43 -5 7 17 -13 35
-30 29z"/>
<path d="M3885 339 c0 -53 2 -59 21 -59 18 0 20 6 20 48 -1 41 2 47 19 47 17
0 20 -6 19 -47 0 -44 2 -48 23 -48 13 0 23 5 23 10 0 6 -4 10 -9 10 -6 0 -11
21 -13 48 l-3 47 -50 2 -50 2 0 -60z"/>
<path d="M4207 382 c-22 -24 -21 -65 1 -85 19 -18 50 -21 90 -11 39 11 24 24
-24 21 -30 -1 -48 2 -51 11 -3 8 9 12 41 12 54 0 69 19 41 50 -23 25 -76 26
-98 2z m81 -19 c2 -9 -8 -13 -32 -13 -34 0 -44 8 -29 24 11 11 56 2 61 -11z"/>
<path d="M4366 381 c-20 -22 -21 -65 -1 -81 8 -7 28 -10 45 -8 24 4 30 1 30
-14 0 -13 -10 -20 -30 -24 -38 -8 -39 -24 -2 -24 42 0 52 17 52 87 0 35 4 63
10 63 6 0 10 4 10 9 0 5 -22 9 -49 9 -34 1 -54 -4 -65 -17z m64 -16 c18 -22 8
-50 -19 -50 -32 0 -49 28 -32 49 17 20 35 20 51 1z"/>
<path d="M4517 382 c-22 -24 -21 -65 1 -85 19 -18 50 -21 90 -11 39 11 24 24
-24 21 -30 -1 -48 2 -51 11 -3 8 9 12 41 12 54 0 69 19 41 50 -23 25 -76 26
-98 2z m81 -19 c2 -9 -8 -13 -32 -13 -34 0 -44 8 -29 24 11 11 56 2 61 -11z"/>
<path d="M4670 390 c0 -5 5 -10 10 -10 6 0 10 -18 10 -40 0 -29 -4 -40 -15
-40 -8 0 -15 -4 -15 -10 0 -5 23 -10 50 -10 28 0 50 5 50 10 0 6 -11 10 -25
10 -20 0 -25 5 -25 23 0 29 31 60 55 55 10 -2 20 3 22 10 6 16 -49 16 -65 0
-9 -9 -12 -9 -12 0 0 7 -9 12 -20 12 -11 0 -20 -4 -20 -10z"/>
<path d="M4970 395 c0 -3 12 -17 28 -30 l27 -25 -27 -25 c-34 -30 -35 -35 -3
-35 19 0 25 5 25 21 0 14 5 19 18 17 10 -2 16 -11 14 -21 -2 -12 4 -17 23 -17
32 0 31 7 -1 41 l-25 26 25 21 c33 25 33 32 1 32 -19 0 -25 -5 -23 -16 4 -25
-22 -29 -29 -5 -3 14 -13 21 -29 21 -13 0 -24 -2 -24 -5z"/>
<path d="M5145 386 c-11 -8 -18 -26 -18 -46 0 -38 23 -60 65 -60 33 0 68 31
68 60 0 48 -72 77 -115 46z m75 -21 c26 -32 -13 -81 -47 -59 -23 14 -28 41
-13 59 16 19 44 19 60 0z"/>
<path d="M3610 300 c0 -23 35 -28 43 -6 7 18 -1 26 -25 26 -11 0 -18 -7 -18
-20z"/>
<path d="M5326 298 c-16 -63 1 -77 27 -23 21 44 21 45 -2 45 -11 0 -21 -9 -25
-22z"/>
<path d="M5950 300 c0 -23 35 -28 43 -6 7 18 -1 26 -25 26 -11 0 -18 -7 -18
-20z"/>
</g>
</svg>
